<svg width="40" height="40" viewBox="0 0 40 40" fill="none" xmlns="http://www.w3.org/2000/svg">
  <path d="M20 0.5C30.7691 0.5 39.5 9.23094 39.5 20C39.5 30.7691 30.7691 39.5 20 39.5C9.23094 39.5 0.5 30.7691 0.5 20C0.5 9.23094 9.23094 0.5 20 0.5ZM16.6897 27.9397C16.5445 28.0776 16.4285 28.2432 16.3483 28.4266C16.2681 28.6101 16.2255 28.8078 16.223 29.0079C16.2204 29.2081 16.2579 29.4068 16.3334 29.5923C16.4088 29.7778 16.5206 29.9462 16.6622 30.0878C16.8038 30.2294 16.9722 30.3412 17.1577 30.4166C17.3432 30.4921 17.5419 30.5296 17.7421 30.527C17.9422 30.5245 18.1399 30.4819 18.3234 30.4017C18.5068 30.3215 18.6724 30.2055 18.8103 30.0603L27.8103 21.0603C28.0914 20.779 28.2493 20.3977 28.2493 20C28.2493 19.6023 28.0914 19.221 27.8103 18.9397L18.8103 9.93969C18.5267 9.67026 18.1491 9.52227 17.7579 9.52728C17.3668 9.53229 16.9931 9.68989 16.7165 9.9665C16.4399 10.2431 16.2823 10.6168 16.2773 11.008C16.2723 11.3991 16.4203 11.7767 16.6897 12.0603L24.6284 20L16.6897 27.9397Z" fill="white" fill-opacity="0.5" />
</svg>