<svg width="24" height="25" viewBox="0 0 24 25" xmlns="http://www.w3.org/2000/svg">
<path d="M8.17102 16.014C12.016 19.859 15.579 20.28 16.625 20.319C17.889 20.365 19.179 19.333 19.737 18.276C18.847 17.232 17.688 16.422 16.419 15.544C15.67 16.292 14.747 17.682 13.518 17.184C12.819 16.903 11.093 16.108 9.58502 14.599C8.07702 13.09 7.28202 11.365 6.99902 10.667C6.50102 9.43603 7.89502 8.51103 8.64402 7.76203C7.76602 6.47203 6.97002 5.28303 5.92802 4.43803C4.85602 4.99803 3.81802 6.27803 3.86502 7.55903C3.90402 8.60503 4.32502 12.168 8.17102 16.014ZM16.551 22.318C15.111 22.265 11.03 21.701 6.75602 17.428C2.48302 13.154 1.92002 9.07403 1.86602 7.63303C1.78602 5.43703 3.46802 3.30403 5.41102 2.47103C5.645 2.37 5.90122 2.33153 6.15455 2.35941C6.40788 2.38728 6.64961 2.48054 6.85602 2.63003C8.46402 3.80303 9.57302 5.58003 10.526 6.97203C10.7243 7.26148 10.8151 7.61113 10.7828 7.96047C10.7504 8.30982 10.597 8.63687 10.349 8.88503L8.99302 10.242C9.30802 10.937 9.94902 12.135 10.999 13.185C12.049 14.235 13.247 14.876 13.943 15.191L15.298 13.835C15.5468 13.586 15.8753 13.4324 16.226 13.4011C16.5766 13.3699 16.9271 13.4629 17.216 13.664C18.636 14.648 20.304 15.741 21.52 17.298C21.6817 17.5059 21.7845 17.7534 21.8177 18.0147C21.851 18.2759 21.8134 18.5413 21.709 18.783C20.872 20.736 18.754 22.399 16.551 22.318Z" />
</svg>
