<svg width="66" height="66" viewBox="0 0 66 66" fill="none" xmlns="http://www.w3.org/2000/svg">
  <path d="M33 0.5C50.9484 0.5 65.5 15.0516 65.5 33C65.5 50.9484 50.9484 65.5 33 65.5C15.0516 65.5 0.5 50.9484 0.5 33C0.5 15.0516 15.0516 0.5 33 0.5ZM27.4828 46.2328C27.2409 46.4627 27.0474 46.7386 26.9138 47.0444C26.7802 47.3502 26.7092 47.6796 26.7049 48.0133C26.7007 48.3469 26.7632 48.6781 26.889 48.9872C27.0147 49.2963 27.201 49.5771 27.437 49.813C27.6729 50.049 27.9537 50.2353 28.2628 50.361C28.5719 50.4868 28.9031 50.5493 29.2367 50.5451C29.5704 50.5408 29.8998 50.4698 30.2056 50.3362C30.5114 50.2026 30.7873 50.0091 31.0172 49.7672L46.0172 34.7672C46.4857 34.2984 46.7488 33.6628 46.7488 33C46.7488 32.3372 46.4857 31.7016 46.0172 31.2328L31.0172 16.2328C30.5445 15.7838 29.9152 15.5371 29.2633 15.5455C28.6113 15.5538 27.9885 15.8165 27.5275 16.2775C27.0665 16.7385 26.8038 17.3613 26.7955 18.0133C26.7871 18.6652 27.0338 19.2945 27.4828 19.7672L40.7141 33L27.4828 46.2328Z" fill="#D6633F" />
</svg>