<svg width="24" height="25" viewBox="0 0 24 25" xmlns="http://www.w3.org/2000/svg">
<path d="M20.0799 4.56895C18.0223 2.50645 15.2821 1.37207 12.3701 1.37207C6.35937 1.37207 1.4683 6.26314 1.4683 12.2739C1.4683 14.1939 1.9692 16.0698 2.92188 17.7247L1.375 23.3721L7.15491 21.8547C8.74598 22.7239 10.5384 23.1806 12.3652 23.1806H12.3701C18.3759 23.1806 23.375 18.2895 23.375 12.2788C23.375 9.36671 22.1375 6.63144 20.0799 4.56895ZM12.3701 21.3439C10.7397 21.3439 9.14375 20.9069 7.75402 20.0819L7.425 19.8855L3.99732 20.7841L4.91071 17.4399L4.69464 17.0962C3.78616 15.6524 3.30982 13.9877 3.30982 12.2739C3.30982 7.27966 7.37589 3.21359 12.375 3.21359C14.796 3.21359 17.0696 4.15645 18.7786 5.87028C20.4875 7.58412 21.5384 9.85779 21.5335 12.2788C21.5335 17.2779 17.3643 21.3439 12.3701 21.3439ZM17.3397 14.5573C17.0696 14.4198 15.729 13.7618 15.4786 13.6734C15.2281 13.5801 15.0464 13.5359 14.8647 13.8109C14.683 14.0859 14.1625 14.6948 14.0004 14.8814C13.8433 15.0631 13.6812 15.0877 13.4112 14.9502C11.8103 14.1497 10.7594 13.5212 9.70357 11.7091C9.42366 11.2279 9.98348 11.2622 10.504 10.2212C10.5924 10.0395 10.5482 9.88234 10.4795 9.74484C10.4107 9.60734 9.86563 8.26671 9.63973 7.72162C9.41875 7.19127 9.19286 7.26493 9.02589 7.25511C8.86875 7.24528 8.68705 7.24528 8.50536 7.24528C8.32366 7.24528 8.02902 7.31403 7.77857 7.58412C7.52812 7.85912 6.82589 8.51716 6.82589 9.85778C6.82589 11.1984 7.80313 12.4948 7.93571 12.6765C8.07321 12.8582 9.8558 15.6082 12.5911 16.7917C14.3196 17.5381 14.9973 17.602 15.8616 17.4743C16.3871 17.3957 17.4723 16.8163 17.6982 16.1779C17.9241 15.5395 17.9241 14.9944 17.8554 14.8814C17.7915 14.7587 17.6098 14.6899 17.3397 14.5573Z"/>
</svg>
