<svg width="25" height="25" viewBox="0 0 25 25" fill="none" xmlns="http://www.w3.org/2000/svg">
<path d="M21.4531 16.6473V20.1833C21.4532 20.4365 21.3573 20.6803 21.1847 20.8655C21.0121 21.0507 20.7757 21.1636 20.5231 21.1813C20.0865 21.212 19.7298 21.2273 19.4531 21.2273C10.6161 21.2273 3.45312 14.0643 3.45312 5.2273C3.45312 4.9513 3.46846 4.59463 3.49913 4.1573C3.51685 3.90474 3.62971 3.66831 3.81493 3.4957C4.00015 3.3231 4.24395 3.22718 4.49713 3.2273H8.03312C8.15716 3.22717 8.27682 3.27315 8.36885 3.35632C8.46089 3.43948 8.51872 3.55388 8.53113 3.6773C8.55379 3.90663 8.57513 4.09063 8.59513 4.2293C8.79384 5.61622 9.20111 6.96513 9.80313 8.2303C9.89813 8.4303 9.83612 8.6693 9.65613 8.7973L7.49813 10.3393C8.81784 13.4136 11.2678 15.8636 14.3421 17.1833L15.8821 15.0293C15.9448 14.941 16.0367 14.8776 16.1415 14.8504C16.2463 14.8231 16.3574 14.8337 16.4551 14.8803C17.7201 15.4812 19.0687 15.8874 20.4551 16.0853C20.5938 16.1053 20.7771 16.1266 21.0051 16.1493C21.1284 16.1619 21.2425 16.2199 21.3255 16.3119C21.4084 16.4039 21.4533 16.5234 21.4531 16.6473Z" fill="white"/>
</svg>
