<svg width="66" height="66" viewBox="0 0 66 66" fill="none" xmlns="http://www.w3.org/2000/svg">
  <path d="M33 0.5C15.0516 0.5 0.5 15.0516 0.5 33C0.5 50.9484 15.0516 65.5 33 65.5C50.9484 65.5 65.5 50.9484 65.5 33C65.5 15.0516 50.9484 0.5 33 0.5ZM38.5172 46.2328C38.7591 46.4627 38.9526 46.7386 39.0862 47.0444C39.2198 47.3502 39.2908 47.6796 39.2951 48.0133C39.2993 48.3469 39.2368 48.6781 39.111 48.9872C38.9853 49.2963 38.799 49.5771 38.563 49.813C38.3271 50.049 38.0463 50.2353 37.7372 50.361C37.4281 50.4868 37.0969 50.5493 36.7633 50.5451C36.4296 50.5408 36.1002 50.4698 35.7944 50.3362C35.4886 50.2026 35.2127 50.0091 34.9828 49.7672L19.9828 34.7672C19.5143 34.2984 19.2512 33.6628 19.2512 33C19.2512 32.3372 19.5143 31.7016 19.9828 31.2328L34.9828 16.2328C35.4555 15.7838 36.0848 15.5371 36.7367 15.5455C37.3887 15.5538 38.0115 15.8165 38.4725 16.2775C38.9335 16.7385 39.1962 17.3613 39.2045 18.0133C39.2129 18.6652 38.9662 19.2945 38.5172 19.7672L25.2859 33L38.5172 46.2328Z" fill="#D6633F" />
</svg>