<svg width="163" height="48" viewBox="0 0 163 48" fill="none" xmlns="http://www.w3.org/2000/svg">
  <g clip-path="url(#clip0_19_1688)">
    <path fill-rule="evenodd" clip-rule="evenodd" d="M156.636 48H6.02303C2.70133 48 -0.00390625 45.2948 -0.00390625 42V6C-0.00390625 2.69327 2.70133 0 6.02303 0H156.636C159.955 0 162.663 2.69327 162.663 6V42C162.663 45.2948 159.955 48 156.636 48Z" fill="#1C1C1E" />
    <path d="M156.636 0.960598C159.423 0.960598 161.703 3.22594 161.703 6V42C161.703 44.7741 159.438 47.0394 156.636 47.0394H6.02303C3.23699 47.0394 0.956692 44.7741 0.956692 42V6C0.956692 3.22594 3.22203 0.960598 6.02303 0.960598H156.636ZM156.636 0H6.02303C2.70133 0 -0.00390625 2.70524 -0.00390625 6V42C-0.00390625 45.3067 2.70133 48 6.02303 48H156.636C159.955 48 162.663 45.3067 162.663 42V6C162.663 2.70524 159.955 0 156.636 0Z" fill="#1C1C1E" />
    <path d="M85.6885 15.8783C84.6022 15.8783 83.6865 15.4982 82.9623 14.7501C82.2441 14.0229 81.8431 13.0204 81.8611 11.997C81.8611 10.9047 82.2322 9.98 82.9623 9.24683C83.6835 8.4987 84.5993 8.11865 85.6855 8.11865C86.7599 8.11865 87.6756 8.4987 88.4117 9.24683C89.1419 10.0039 89.513 10.9286 89.513 11.997C89.501 13.0922 89.1299 14.0169 88.4117 14.7471C87.6905 15.5012 86.7748 15.8783 85.6885 15.8783ZM53.3663 15.8783C52.304 15.8783 51.3823 15.5042 50.6282 14.765C49.88 14.0289 49.5 13.0982 49.5 11.9999C49.5 10.9017 49.88 9.97102 50.6282 9.23486C51.3673 8.49571 52.289 8.12165 53.3663 8.12165C53.893 8.12165 54.4047 8.22638 54.8955 8.43885C55.3773 8.64534 55.7693 8.92663 56.0596 9.27077L56.1314 9.35756L55.3204 10.1536L55.2367 10.0548C54.7788 9.51017 54.1653 9.24384 53.3544 9.24384C52.6302 9.24384 51.9988 9.5012 51.4781 10.0099C50.9544 10.5216 50.688 11.192 50.688 12.0029C50.688 12.8139 50.9544 13.4842 51.4781 13.996C51.9988 14.5047 52.6302 14.762 53.3544 14.762C54.1264 14.762 54.7758 14.5047 55.2815 13.996C55.5808 13.6967 55.7663 13.2778 55.8322 12.7481H53.2317V11.6289H56.9484L56.9633 11.7306C56.9903 11.9192 57.0172 12.1137 57.0172 12.2932C57.0172 13.3256 56.706 14.1605 56.0895 14.777C55.3893 15.5072 54.4736 15.8783 53.3663 15.8783ZM96.3419 15.7197H95.1958L91.6855 10.1027L91.7155 11.1142V15.7167H90.5693V8.28025H91.8771L91.913 8.33711L95.2137 13.6279L95.1838 12.6194V8.28025H96.3419V15.7197ZM77.0761 15.7197H75.915V9.39945H73.901V8.28025H79.087V9.39945H77.0731V15.7197H77.0761ZM72.9554 15.7197H71.7973V8.28025H72.9554V15.7197ZM66.4466 15.7197H65.2885V9.39945H63.2746V8.28025H68.4606V9.39945H66.4466V15.7197ZM62.5414 15.7077H58.1005V8.28025H62.5414V9.39945H59.2616V11.4403H62.2212V12.5476H59.2616V14.5885H62.5414V15.7077ZM83.8122 13.981C84.3299 14.4987 84.9584 14.7591 85.6885 14.7591C86.4397 14.7591 87.0531 14.5047 87.5648 13.981C88.0736 13.4723 88.3309 12.8049 88.3309 11.9999C88.3309 11.195 88.0736 10.5246 87.5678 10.0189C87.0501 9.5012 86.4187 9.24085 85.6915 9.24085C84.9404 9.24085 84.3269 9.49521 83.8182 10.0189C83.3095 10.5276 83.0521 11.195 83.0521 11.9999C83.0521 12.8049 83.3065 13.4753 83.8122 13.981Z" fill="white" />
    <path fill-rule="evenodd" clip-rule="evenodd" d="M81.7542 26.1068C78.9263 26.1068 76.634 28.2524 76.634 31.212C76.634 34.1447 78.9413 36.3173 81.7542 36.3173C84.5822 36.3173 86.8744 34.1567 86.8744 31.212C86.8744 28.2524 84.5822 26.1068 81.7542 26.1068ZM81.7542 34.2943C80.2071 34.2943 78.8754 33.0135 78.8754 31.2001C78.8754 29.3597 80.2101 28.1058 81.7542 28.1058C83.3014 28.1058 84.633 29.3597 84.633 31.2001C84.636 33.0255 83.3014 34.2943 81.7542 34.2943ZM70.5832 26.1068C67.7552 26.1068 65.463 28.2524 65.463 31.212C65.463 34.1447 67.7702 36.3173 70.5832 36.3173C73.4111 36.3173 75.7034 34.1567 75.7034 31.212C75.7034 28.2524 73.4081 26.1068 70.5832 26.1068ZM70.5832 34.2943C69.036 34.2943 67.7044 33.0135 67.7044 31.2001C67.7044 29.3597 69.039 28.1058 70.5832 28.1058C72.1303 28.1058 73.462 29.3597 73.462 31.2001C73.462 33.0255 72.1303 34.2943 70.5832 34.2943ZM57.2904 27.6659V29.8265H62.4764C62.3178 31.0385 61.9168 31.9332 61.3034 32.5467C60.5433 33.3068 59.3702 34.1327 57.3024 34.1327C54.1153 34.1327 51.6226 31.5592 51.6226 28.3721C51.6226 25.1851 54.1153 22.6115 57.3024 22.6115C59.0231 22.6115 60.2769 23.2908 61.2076 24.1587L62.7398 22.6265C61.447 21.3876 59.7263 20.439 57.3143 20.439C52.9423 20.439 49.2734 24.0001 49.2734 28.3602C49.2734 32.7322 52.9393 36.2814 57.3143 36.2814C59.6754 36.2814 61.447 35.5093 62.8475 34.0549C64.2749 32.6275 64.7268 30.6135 64.7268 28.9886C64.7268 28.4829 64.6879 28.028 64.6071 27.642H57.2874C57.2904 27.639 57.2904 27.6659 57.2904 27.6659ZM111.661 29.3477C111.234 28.2016 109.941 26.0948 107.289 26.0948C104.662 26.0948 102.477 28.1627 102.477 31.2001C102.477 34.0669 104.638 36.3053 107.544 36.3053C109.878 36.3053 111.237 34.8779 111.796 34.04L110.063 32.8789C109.489 33.7317 108.69 34.2913 107.556 34.2913C106.41 34.2913 105.608 33.7706 105.075 32.7442L111.901 29.9163C111.901 29.9193 111.661 29.3477 111.661 29.3477ZM104.701 31.0534C104.647 29.0814 106.233 28.0789 107.367 28.0789C108.262 28.0789 109.007 28.5188 109.261 29.1592L104.701 31.0534ZM99.1557 36.0001H101.397V21.0016H99.1557V36.0001ZM95.4749 27.241H95.3941C94.8884 26.6395 93.9278 26.0948 92.7009 26.0948C90.1542 26.0948 87.8081 28.3362 87.8081 31.215C87.8081 34.0819 90.1423 36.2963 92.7009 36.2963C93.9128 36.2963 94.8884 35.7487 95.3941 35.1352H95.4749V35.8684C95.4749 37.8165 94.4335 38.8669 92.7547 38.8669C91.3812 38.8669 90.5283 37.8794 90.1812 37.0534L88.233 37.8674C88.7926 39.214 90.2859 40.8809 92.7517 40.8809C95.3792 40.8809 97.6056 39.3337 97.6056 35.5602V26.4001H95.4869V27.241C95.4899 27.241 95.4749 27.241 95.4749 27.241ZM92.9014 34.2943C91.3542 34.2943 90.0615 33.0016 90.0615 31.215C90.0615 29.4135 91.3542 28.1088 92.9014 28.1088C94.4335 28.1088 95.6216 29.4285 95.6216 31.215C95.6365 33.0016 94.4365 34.2943 92.9014 34.2943ZM122.156 21.0016H116.797V36.0001H119.038V30.3203H122.159C124.64 30.3203 127.079 28.5218 127.079 25.6669C127.079 22.812 124.649 21.0016 122.156 21.0016ZM122.222 28.2255H119.035V23.0784H122.222C123.901 23.0784 124.85 24.4639 124.85 25.6519C124.85 26.828 123.889 28.2255 122.222 28.2255ZM136.062 26.0799C134.435 26.0799 132.756 26.8011 132.061 28.3721L134.049 29.1981C134.476 28.3721 135.26 28.0908 136.089 28.0908C137.25 28.0908 138.424 28.7851 138.451 30.024V30.1826C138.05 29.9552 137.17 29.608 136.116 29.608C133.971 29.608 131.795 30.7811 131.795 32.9806C131.795 34.9946 133.555 36.2873 135.515 36.2873C137.02 36.2873 137.849 35.608 138.367 34.821H138.448V35.9821H140.608V30.2365C140.608 27.5612 138.621 26.0799 136.062 26.0799ZM135.781 34.2943C135.048 34.2943 134.022 33.9352 134.022 33.0135C134.022 31.8524 135.302 31.4125 136.395 31.4125C137.382 31.4125 137.849 31.625 138.436 31.9183C138.274 33.2649 137.137 34.2824 135.781 34.2943ZM148.49 26.4001L145.917 32.9058H145.836L143.17 26.4001H140.758L144.759 35.4943L142.478 40.5487H144.813L150.968 26.4001H148.49ZM128.315 36.0001H130.556V21.0016H128.315V36.0001Z" fill="white" />
    <path d="M12.5164 9.04027C12.1692 9.41434 11.9688 9.98591 11.9688 10.734V37.2687C11.9688 38.0168 12.1692 38.5884 12.5284 38.9475L12.6211 39.0283L27.488 24.1615V23.8293L12.6091 8.95947L12.5164 9.04027Z" fill="white" stroke="#1C1C1E" stroke-width="0.0598504" />
    <path d="M32.4352 29.1321L27.4766 24.1735V23.8264L32.4352 18.8678L32.5429 18.9336L38.4082 22.2673C40.087 23.2129 40.087 24.775 38.4082 25.7326L32.5429 29.0663L32.4352 29.1321Z" fill="white" stroke="#1C1C1E" stroke-width="0.0598504" />
    <path d="M32.5416 29.0663L27.4752 24L12.5156 38.9596C13.0633 39.5461 13.982 39.612 15.0084 39.0404L32.5416 29.0663Z" fill="white" stroke="#1C1C1E" stroke-width="0.0598504" />
    <path d="M32.5416 18.9334L15.0084 8.97434C13.982 8.3878 13.0603 8.4686 12.5156 9.05513L27.4752 23.9998L32.5416 18.9334Z" fill="white" stroke="#1C1C1E" stroke-width="0.0598504" />
    <path opacity="0.2" fill-rule="evenodd" clip-rule="evenodd" d="M32.4336 28.9585L15.0201 38.8518C14.0475 39.4114 13.1797 39.3725 12.6201 38.8637L12.5273 38.9565L12.6201 39.0373C13.1797 39.543 14.0475 39.5849 15.0201 39.0253L32.5533 29.0662L32.4336 28.9585Z" fill="#1C1C1E" />
    <path opacity="0.12" fill-rule="evenodd" clip-rule="evenodd" d="M38.4099 25.5591L32.4219 28.9586L32.5296 29.0663L38.3949 25.7327C39.2358 25.2539 39.6488 24.6254 39.6488 24C39.5979 24.5746 39.17 25.1192 38.4099 25.5591Z" fill="#1C1C1E" />
    <path opacity="0.25" fill-rule="evenodd" clip-rule="evenodd" d="M15.0091 9.14825L38.4077 22.441C39.1678 22.8689 39.5957 23.4285 39.6615 24.0001C39.6615 23.3747 39.2486 22.7463 38.4077 22.2674L15.0091 8.97468C13.3303 8.01408 11.9688 8.81608 11.9688 10.7343V10.9078C11.9688 8.98665 13.3303 8.19962 15.0091 9.14825Z" fill="white" />
  </g>
  <defs>
    <clipPath id="clip0_19_1688">
      <rect width="162.667" height="48" fill="white" transform="translate(-0.00390625)" />
    </clipPath>
  </defs>
</svg>