<svg width="162" height="48" viewBox="0 0 162 48" fill="none" xmlns="http://www.w3.org/2000/svg">
  <path d="M160.837 42.3215C160.837 44.8607 158.78 46.9175 156.236 46.9175H5.67321C3.13041 46.9175 1.06641 44.8607 1.06641 42.3215V5.66987C1.06641 3.13187 3.13041 1.06787 5.67321 1.06787H156.235C158.78 1.06787 160.836 3.13187 160.836 5.66987L160.837 42.3215Z" fill="#1C1C1E" />
  <path d="M36.151 23.7408C36.1162 19.8732 39.3178 17.9916 39.4642 17.904C37.651 15.2604 34.8406 14.8992 33.853 14.8704C31.4926 14.622 29.203 16.2828 28.0006 16.2828C26.7742 16.2828 24.9226 14.8944 22.927 14.9352C20.359 14.9748 17.9566 16.4616 16.639 18.7704C13.9198 23.478 15.9478 30.396 18.553 34.2012C19.8562 36.0648 21.379 38.1456 23.3722 38.0724C25.3222 37.992 26.0506 36.8292 28.4038 36.8292C30.7354 36.8292 31.4194 38.0724 33.4522 38.0256C35.545 37.992 36.8626 36.1536 38.1202 34.2732C39.6262 32.1372 40.231 30.0336 40.255 29.9256C40.2058 29.9088 36.1906 28.3764 36.151 23.7408Z" fill="white" />
  <path d="M32.3125 12.3672C33.3613 11.0556 34.0789 9.27125 33.8797 7.46045C32.3617 7.52765 30.4633 8.51045 29.3701 9.79325C28.4029 10.9236 27.5389 12.7764 27.7621 14.5188C29.4673 14.646 31.2181 13.6584 32.3125 12.3672Z" fill="white" />
  <path d="M64.3726 37.8047H61.6474L60.1546 33.1139H54.9658L53.5438 37.8047H50.8906L56.0314 21.8351H59.2066L64.3726 37.8047ZM59.7046 31.1459L58.3546 26.9759C58.2118 26.5499 57.9442 25.5467 57.5494 23.9675H57.5014C57.3442 24.6467 57.091 25.6499 56.743 26.9759L55.417 31.1459H59.7046Z" fill="white" />
  <path d="M77.5931 31.9055C77.5931 33.8639 77.0639 35.4119 76.0055 36.5483C75.0575 37.5599 73.8803 38.0651 72.4751 38.0651C70.9583 38.0651 69.8687 37.5203 69.2051 36.4307H69.1571V42.4967H66.5987V30.0803C66.5987 28.8491 66.5663 27.5855 66.5039 26.2895H68.7539L68.8967 28.1147H68.9447C69.7979 26.7395 71.0927 26.0531 72.8303 26.0531C74.1887 26.0531 75.3227 26.5895 76.2299 27.6635C77.1395 28.7387 77.5931 30.1523 77.5931 31.9055ZM74.9867 31.9991C74.9867 30.8783 74.7347 29.9543 74.2283 29.2271C73.6751 28.4687 72.9323 28.0895 72.0011 28.0895C71.3699 28.0895 70.7963 28.3007 70.2839 28.7171C69.7703 29.1371 69.4343 29.6855 69.2771 30.3647C69.1979 30.6815 69.1583 30.9407 69.1583 31.1447V33.0647C69.1583 33.9023 69.4151 34.6091 69.9287 35.1863C70.4423 35.7635 71.1095 36.0515 71.9303 36.0515C72.8939 36.0515 73.6439 35.6795 74.1803 34.9379C74.7179 34.1951 74.9867 33.2159 74.9867 31.9991Z" fill="white" />
  <path d="M90.838 31.9056C90.838 33.864 90.3088 35.412 89.2492 36.5484C88.3024 37.56 87.1252 38.0652 85.72 38.0652C84.2032 38.0652 83.1136 37.5204 82.4512 36.4308H82.4032V42.4968H79.8448V30.0804C79.8448 28.8492 79.8124 27.5856 79.75 26.2896H82L82.1428 28.1148H82.1908C83.0428 26.7396 84.3376 26.0532 86.0764 26.0532C87.4336 26.0532 88.5676 26.5896 89.4772 27.6636C90.3832 28.7388 90.838 30.1524 90.838 31.9056ZM88.2316 31.9992C88.2316 30.8784 87.9784 29.9544 87.472 29.2272C86.9188 28.4688 86.1784 28.0896 85.246 28.0896C84.6136 28.0896 84.0412 28.3008 83.5276 28.7172C83.014 29.1372 82.6792 29.6856 82.522 30.3648C82.444 30.6816 82.4032 30.9408 82.4032 31.1448V33.0648C82.4032 33.9024 82.66 34.6092 83.1712 35.1864C83.6848 35.7624 84.352 36.0516 85.1752 36.0516C86.1388 36.0516 86.8888 35.6796 87.4252 34.938C87.9628 34.1952 88.2316 33.216 88.2316 31.9992Z" fill="white" />
  <path d="M105.645 33.3263C105.645 34.6847 105.174 35.7899 104.227 36.6431C103.187 37.5755 101.738 38.0411 99.8771 38.0411C98.1587 38.0411 96.7811 37.7099 95.7383 37.0463L96.3311 34.9139C97.4543 35.5931 98.6867 35.9339 100.029 35.9339C100.993 35.9339 101.743 35.7155 102.282 35.2811C102.818 34.8467 103.086 34.2635 103.086 33.5363C103.086 32.8883 102.865 32.3423 102.422 31.8995C101.982 31.4567 101.246 31.0451 100.219 30.6647C97.4231 29.6219 96.0263 28.0943 96.0263 26.0855C96.0263 24.7727 96.5159 23.6963 97.4963 22.8587C98.4731 22.0199 99.7763 21.6011 101.406 21.6011C102.859 21.6011 104.066 21.8543 105.03 22.3595L104.39 24.4451C103.49 23.9555 102.473 23.7107 101.334 23.7107C100.434 23.7107 99.7307 23.9327 99.2267 24.3743C98.8007 24.7691 98.5871 25.2503 98.5871 25.8203C98.5871 26.4515 98.8307 26.9735 99.3203 27.3839C99.7463 27.7631 100.52 28.1735 101.643 28.6163C103.017 29.1695 104.027 29.8163 104.676 30.5579C105.323 31.2971 105.645 32.2223 105.645 33.3263Z" fill="white" />
  <path d="M114.103 28.2096H111.283V33.8004C111.283 35.2224 111.779 35.9328 112.775 35.9328C113.233 35.9328 113.612 35.8932 113.912 35.814L113.983 37.7568C113.479 37.9452 112.815 38.04 111.993 38.04C110.983 38.04 110.193 37.7316 109.623 37.116C109.055 36.4992 108.77 35.4648 108.77 34.0116V28.2072H107.09V26.2872H108.77V24.1788L111.283 23.4204V26.2872H114.103V28.2096Z" fill="white" />
  <path d="M126.83 31.9522C126.83 33.7222 126.323 35.1754 125.313 36.3118C124.253 37.4818 122.847 38.065 121.094 38.065C119.404 38.065 118.059 37.5046 117.056 36.3838C116.052 35.263 115.551 33.8482 115.551 32.143C115.551 30.3586 116.067 28.897 117.102 27.7606C118.136 26.623 119.53 26.0542 121.283 26.0542C122.973 26.0542 124.332 26.6146 125.358 27.7366C126.34 28.825 126.83 30.2302 126.83 31.9522ZM124.175 32.035C124.175 30.973 123.948 30.0622 123.489 29.3026C122.952 28.3834 122.186 27.925 121.192 27.925C120.164 27.925 119.382 28.3846 118.846 29.3026C118.386 30.0634 118.16 30.9886 118.16 32.083C118.16 33.145 118.386 34.0558 118.846 34.8142C119.399 35.7334 120.172 36.1918 121.169 36.1918C122.146 36.1918 122.913 35.7238 123.466 34.7902C123.938 34.0162 124.175 33.0958 124.175 32.035Z" fill="white" />
  <path d="M135.145 28.5396C134.892 28.4928 134.622 28.4688 134.339 28.4688C133.439 28.4688 132.743 28.8084 132.253 29.4888C131.827 30.0888 131.614 30.8472 131.614 31.7628V37.8048H129.056L129.08 29.916C129.08 28.5888 129.048 27.3804 128.984 26.2908H131.213L131.306 28.494H131.377C131.647 27.7368 132.073 27.1272 132.656 26.67C133.226 26.2584 133.842 26.0532 134.506 26.0532C134.742 26.0532 134.956 26.07 135.145 26.1V28.5396Z" fill="white" />
  <path d="M146.585 31.5021C146.585 31.9605 146.555 32.3468 146.492 32.6624H138.816C138.846 33.8 139.217 34.67 139.93 35.2701C140.577 35.8064 141.413 36.0752 142.44 36.0752C143.577 36.0752 144.614 35.894 145.546 35.5304L145.947 37.3064C144.857 37.7817 143.571 38.018 142.086 38.018C140.301 38.018 138.899 37.4924 137.879 36.4424C136.862 35.3924 136.352 33.9824 136.352 32.2136C136.352 30.4772 136.826 29.0312 137.775 27.878C138.768 26.6468 140.111 26.0312 141.801 26.0312C143.46 26.0312 144.717 26.6468 145.57 27.878C146.246 28.856 146.585 30.0656 146.585 31.5021ZM144.146 30.8384C144.162 30.08 143.996 29.4248 143.649 28.8716C143.206 28.16 142.526 27.8048 141.61 27.8048C140.774 27.8048 140.093 28.1517 139.574 28.8477C139.148 29.4009 138.894 30.0644 138.816 30.8372L144.146 30.8384Z" fill="white" />
  <path d="M58.859 12.0108C58.859 13.4232 58.4354 14.4864 57.5894 15.2004C56.8058 15.8592 55.6922 16.1892 54.2498 16.1892C53.5346 16.1892 52.9226 16.158 52.4102 16.0956V8.37841C53.0786 8.27041 53.7986 8.21521 54.5762 8.21521C55.9502 8.21521 56.9858 8.51401 57.6842 9.11161C58.4666 9.78721 58.859 10.7532 58.859 12.0108ZM57.533 12.0456C57.533 11.13 57.2906 10.428 56.8058 9.93841C56.321 9.45001 55.613 9.20521 54.6806 9.20521C54.2846 9.20521 53.9474 9.23161 53.6678 9.28681V15.1536C53.8226 15.1776 54.1058 15.1884 54.5174 15.1884C55.4798 15.1884 56.2226 14.9208 56.7458 14.3856C57.269 13.8504 57.533 13.0704 57.533 12.0456Z" fill="white" />
  <path d="M65.8881 13.2445C65.8881 14.1145 65.6397 14.8273 65.1429 15.3865C64.6221 15.9613 63.9321 16.2481 63.0705 16.2481C62.2401 16.2481 61.5789 15.9733 61.0857 15.4213C60.5937 14.8705 60.3477 14.1757 60.3477 13.3381C60.3477 12.4621 60.6009 11.7433 61.1097 11.1853C61.6185 10.6273 62.3025 10.3477 63.1641 10.3477C63.9945 10.3477 64.6617 10.6225 65.1669 11.1733C65.6469 11.7085 65.8881 12.3997 65.8881 13.2445ZM64.5837 13.2853C64.5837 12.7633 64.4709 12.3157 64.2465 11.9425C63.9825 11.4913 63.6069 11.2657 63.1185 11.2657C62.6133 11.2657 62.2293 11.4913 61.9653 11.9425C61.7397 12.3157 61.6281 12.7705 61.6281 13.3081C61.6281 13.8301 61.7409 14.2777 61.9653 14.6509C62.2377 15.1021 62.6169 15.3277 63.1065 15.3277C63.5865 15.3277 63.9633 15.0985 64.2345 14.6389C64.4673 14.2585 64.5837 13.8073 64.5837 13.2853Z" fill="white" />
  <path d="M75.3171 10.4628L73.5471 16.1196H72.3951L71.6619 13.6632C71.4759 13.05 71.3247 12.4404 71.2071 11.8356H71.1843C71.0751 12.4572 70.9239 13.0656 70.7295 13.6632L69.9507 16.1196H68.7855L67.1211 10.4628H68.4135L69.0531 13.152C69.2079 13.788 69.3351 14.394 69.4371 14.9676H69.4599C69.5535 14.4948 69.7083 13.8924 69.9267 13.164L70.7295 10.464H71.7543L72.5235 13.1064C72.7095 13.7508 72.8607 14.3712 72.9771 14.9688H73.0119C73.0971 14.3868 73.2255 13.7664 73.3959 13.1064L74.0823 10.464H75.3171V10.4628Z" fill="white" />
  <path d="M81.8373 16.1193H80.5797V12.8793C80.5797 11.8809 80.2005 11.3817 79.4397 11.3817C79.0665 11.3817 78.7653 11.5186 78.5313 11.7934C78.2997 12.0682 78.1821 12.3921 78.1821 12.7629V16.1181H76.9245V12.079C76.9245 11.5821 76.9089 11.0434 76.8789 10.4602H77.9841L78.0429 11.3446H78.0777C78.2241 11.0698 78.4425 10.843 78.7293 10.6618C79.0701 10.4506 79.4517 10.3438 79.8693 10.3438C80.3973 10.3438 80.8365 10.5142 81.1857 10.8562C81.6201 11.275 81.8373 11.9002 81.8373 12.7306V16.1193Z" fill="white" />
  <path d="M85.3033 16.1196H84.0469V7.86719H85.3033V16.1196Z" fill="white" />
  <path d="M92.7084 13.2443C92.7084 14.1143 92.46 14.8271 91.9632 15.3863C91.4424 15.9611 90.7512 16.2479 89.8908 16.2479C89.0592 16.2479 88.398 15.9731 87.906 15.4211C87.414 14.8703 87.168 14.1755 87.168 13.3379C87.168 12.4619 87.4212 11.7431 87.93 11.1851C88.4388 10.6271 89.1228 10.3475 89.9832 10.3475C90.8148 10.3475 91.4808 10.6223 91.9872 11.1731C92.4672 11.7083 92.7084 12.3995 92.7084 13.2443ZM91.4028 13.2851C91.4028 12.7631 91.29 12.3155 91.0656 11.9423C90.8028 11.4911 90.426 11.2655 89.9388 11.2655C89.4324 11.2655 89.0484 11.4911 88.7856 11.9423C88.56 12.3155 88.4484 12.7703 88.4484 13.3079C88.4484 13.8299 88.5612 14.2775 88.7856 14.6507C89.058 15.1019 89.4372 15.3275 89.9268 15.3275C90.4068 15.3275 90.7824 15.0983 91.0536 14.6387C91.2876 14.2583 91.4028 13.8071 91.4028 13.2851Z" fill="white" />
  <path d="M98.7963 16.1197H97.6671L97.5735 15.4681H97.5387C97.1523 15.9877 96.6015 16.2481 95.8863 16.2481C95.3523 16.2481 94.9203 16.0765 94.5951 15.7357C94.2999 15.4261 94.1523 15.0409 94.1523 14.5837C94.1523 13.8925 94.4403 13.3657 95.0199 13.0009C95.5983 12.6361 96.4119 12.4573 97.4595 12.4657V12.3601C97.4595 11.6149 97.0683 11.2429 96.2847 11.2429C95.7267 11.2429 95.2347 11.3833 94.8099 11.6617L94.5543 10.8361C95.0799 10.5109 95.7291 10.3477 96.4947 10.3477C97.9731 10.3477 98.7147 11.1277 98.7147 12.6877V14.7709C98.7147 15.3361 98.7423 15.7861 98.7963 16.1197ZM97.4907 14.1757V13.3033C96.1035 13.2793 95.4099 13.6597 95.4099 14.4433C95.4099 14.7385 95.4891 14.9593 95.6511 15.1069C95.8131 15.2545 96.0195 15.3277 96.2655 15.3277C96.5415 15.3277 96.7995 15.2401 97.0347 15.0661C97.2711 14.8909 97.4163 14.6689 97.4703 14.3965C97.4835 14.3353 97.4907 14.2609 97.4907 14.1757Z" fill="white" />
  <path d="M105.939 16.1196H104.823L104.764 15.2112H104.729C104.373 15.9024 103.766 16.248 102.913 16.248C102.231 16.248 101.663 15.9804 101.213 15.4452C100.763 14.91 100.539 14.2152 100.539 13.362C100.539 12.4464 100.783 11.7048 101.272 11.1384C101.746 10.6104 102.327 10.3464 103.018 10.3464C103.778 10.3464 104.309 10.602 104.612 11.1144H104.636V7.86719H105.895V14.5956C105.895 15.1464 105.909 15.654 105.939 16.1196ZM104.636 13.734V12.7908C104.636 12.6276 104.624 12.4956 104.601 12.3948C104.53 12.0924 104.378 11.838 104.146 11.6328C103.912 11.4276 103.63 11.3244 103.305 11.3244C102.836 11.3244 102.469 11.5104 102.199 11.8836C101.931 12.2568 101.795 12.7332 101.795 13.3152C101.795 13.8744 101.924 14.328 102.182 14.6772C102.454 15.0492 102.821 15.2352 103.281 15.2352C103.694 15.2352 104.024 15.0804 104.275 14.7696C104.517 14.4828 104.636 14.1372 104.636 13.734Z" fill="white" />
  <path d="M116.697 13.2443C116.697 14.1143 116.448 14.8271 115.951 15.3863C115.431 15.9611 114.742 16.2479 113.879 16.2479C113.05 16.2479 112.389 15.9731 111.894 15.4211C111.402 14.8703 111.156 14.1755 111.156 13.3379C111.156 12.4619 111.409 11.7431 111.918 11.1851C112.427 10.6271 113.111 10.3475 113.974 10.3475C114.803 10.3475 115.471 10.6223 115.975 11.1731C116.455 11.7083 116.697 12.3995 116.697 13.2443ZM115.393 13.2851C115.393 12.7631 115.281 12.3155 115.056 11.9423C114.791 11.4911 114.417 11.2655 113.927 11.2655C113.423 11.2655 113.039 11.4911 112.774 11.9423C112.548 12.3155 112.437 12.7703 112.437 13.3079C112.437 13.8299 112.549 14.2775 112.774 14.6507C113.046 15.1019 113.425 15.3275 113.915 15.3275C114.395 15.3275 114.773 15.0983 115.044 14.6387C115.276 14.2583 115.393 13.8071 115.393 13.2851Z" fill="white" />
  <path d="M123.457 16.1193H122.201V12.8793C122.201 11.8809 121.822 11.3817 121.06 11.3817C120.686 11.3817 120.385 11.5186 120.152 11.7934C119.92 12.0682 119.803 12.3921 119.803 12.7629V16.1181H118.544V12.079C118.544 11.5821 118.53 11.0434 118.5 10.4602H119.604L119.663 11.3446H119.698C119.845 11.0698 120.064 10.843 120.349 10.6618C120.691 10.4506 121.072 10.3438 121.49 10.3438C122.017 10.3438 122.456 10.5142 122.806 10.8562C123.241 11.275 123.457 11.9002 123.457 12.7306V16.1193Z" fill="white" />
  <path d="M131.922 11.405H130.537V14.153C130.537 14.8514 130.783 15.2006 131.27 15.2006C131.496 15.2006 131.683 15.1814 131.831 15.1418L131.863 16.0958C131.615 16.1894 131.288 16.2362 130.886 16.2362C130.389 16.2362 130.003 16.085 129.723 15.7826C129.443 15.4802 129.303 14.9714 129.303 14.2574V11.405H128.477V10.463H129.303V9.4262L130.536 9.0542V10.4618H131.921L131.922 11.405Z" fill="white" />
  <path d="M138.581 16.1196H137.322V12.9036C137.322 11.8896 136.943 11.382 136.183 11.382C135.6 11.382 135.202 11.676 134.983 12.264C134.946 12.3876 134.924 12.5388 134.924 12.7164V16.1184H133.668V7.86719H134.924V11.2764H134.948C135.344 10.656 135.912 10.3464 136.648 10.3464C137.168 10.3464 137.599 10.5168 137.941 10.8588C138.367 11.2848 138.581 11.9184 138.581 12.756V16.1196Z" fill="white" />
  <path d="M145.447 13.0236C145.447 13.2492 145.43 13.4388 145.4 13.5936H141.629C141.646 14.1528 141.826 14.5788 142.175 14.874C142.494 15.138 142.906 15.27 143.41 15.27C143.968 15.27 144.476 15.1812 144.935 15.0024L145.132 15.876C144.595 16.1088 143.964 16.2252 143.233 16.2252C142.357 16.2252 141.667 15.9672 141.168 15.4512C140.666 14.9352 140.418 14.2428 140.418 13.374C140.418 12.5208 140.65 11.8104 141.116 11.244C141.604 10.6392 142.262 10.3368 143.094 10.3368C143.908 10.3368 144.526 10.6392 144.943 11.244C145.28 11.724 145.447 12.318 145.447 13.0236ZM144.247 12.6984C144.257 12.3252 144.174 12.0036 144.004 11.7324C143.785 11.3832 143.453 11.208 143.003 11.208C142.592 11.208 142.258 11.3784 142.002 11.7204C141.793 11.9928 141.67 12.318 141.629 12.6984H144.247Z" fill="white" />
</svg>