<svg width="24" height="25" viewBox="0 0 24 25" xmlns="http://www.w3.org/2000/svg">
<path d="M12 2.18457C9.284 2.18457 8.944 2.19657 7.877 2.24457C6.813 2.29357 6.086 2.46257 5.45 2.70957C4.78247 2.96039 4.17773 3.35388 3.678 3.86257C3.16931 4.3623 2.77582 4.96704 2.525 5.63457C2.278 6.27057 2.109 6.99757 2.06 8.06157C2.011 9.12857 2 9.46857 2 12.1846C2 14.9006 2.011 15.2406 2.06 16.3076C2.109 17.3716 2.278 18.0986 2.525 18.7346C2.77582 19.4021 3.16931 20.0068 3.678 20.5066C4.17773 21.0153 4.78247 21.4088 5.45 21.6596C6.086 21.9066 6.813 22.0756 7.877 22.1246C8.944 22.1726 9.284 22.1846 12 22.1846C14.716 22.1846 15.056 22.1726 16.123 22.1246C17.187 22.0756 17.914 21.9066 18.55 21.6596C19.2175 21.4088 19.8223 21.0153 20.322 20.5066C20.8307 20.0068 21.2242 19.4021 21.475 18.7346C21.722 18.0986 21.891 17.3716 21.94 16.3076C21.988 15.2406 22 14.9006 22 12.1846C22 9.46857 21.988 9.12857 21.94 8.06157C21.891 6.99757 21.722 6.27057 21.475 5.63457C21.2242 4.96704 20.8307 4.3623 20.322 3.86257C19.8223 3.35388 19.2175 2.96039 18.55 2.70957C17.914 2.46257 17.187 2.29357 16.123 2.24457C15.056 2.19657 14.716 2.18457 12 2.18457ZM12 3.98657C14.67 3.98657 14.986 3.99657 16.04 4.04457C17.016 4.08957 17.545 4.25157 17.898 4.38857C18.364 4.57057 18.698 4.78757 19.048 5.13657C19.398 5.48657 19.614 5.82057 19.796 6.28657C19.932 6.63957 20.096 7.16857 20.14 8.14357C20.188 9.19857 20.198 9.51357 20.198 12.1846C20.198 14.8546 20.188 15.1706 20.14 16.2246C20.095 17.2006 19.932 17.7296 19.796 18.0826C19.6357 18.517 19.3801 18.9099 19.048 19.2326C18.698 19.5826 18.364 19.7986 17.898 19.9806C17.545 20.1166 17.016 20.2806 16.041 20.3246C14.987 20.3726 14.671 20.3826 12 20.3826C9.33 20.3826 9.013 20.3726 7.96 20.3246C6.984 20.2796 6.455 20.1166 6.102 19.9806C5.66762 19.8202 5.27466 19.5647 4.952 19.2326C4.61991 18.9099 4.36432 18.517 4.204 18.0826C4.067 17.7296 3.904 17.2006 3.86 16.2256C3.812 15.1706 3.802 14.8556 3.802 12.1846C3.802 9.51457 3.812 9.19857 3.86 8.14457C3.905 7.16857 4.067 6.63957 4.204 6.28657C4.386 5.82057 4.603 5.48657 4.952 5.13657C5.302 4.78657 5.636 4.57057 6.102 4.38857C6.455 4.25157 6.984 4.08857 7.959 4.04457C9.014 3.99657 9.329 3.98657 12 3.98657ZM12 15.5176C11.116 15.5176 10.2683 15.1664 9.64321 14.5414C9.01815 13.9163 8.667 13.0685 8.667 12.1846C8.667 11.3006 9.01815 10.4528 9.64321 9.82778C10.2683 9.20272 11.116 8.85157 12 8.85157C12.884 8.85157 13.7317 9.20272 14.3568 9.82778C14.9818 10.4528 15.333 11.3006 15.333 12.1846C15.333 13.0685 14.9818 13.9163 14.3568 14.5414C13.7317 15.1664 12.884 15.5176 12 15.5176ZM12 7.04957C11.3257 7.04957 10.6579 7.18239 10.0349 7.44045C9.41191 7.69851 8.84584 8.07675 8.36901 8.55358C7.89218 9.03041 7.51394 9.59648 7.25588 10.2195C6.99782 10.8425 6.865 11.5102 6.865 12.1846C6.865 12.8589 6.99782 13.5266 7.25588 14.1496C7.51394 14.7727 7.89218 15.3387 8.36901 15.8156C8.84584 16.2924 9.41191 16.6706 10.0349 16.9287C10.6579 17.1867 11.3257 17.3196 12 17.3196C13.3619 17.3196 14.668 16.7786 15.631 15.8156C16.594 14.8526 17.135 13.5465 17.135 12.1846C17.135 10.8227 16.594 9.51658 15.631 8.55358C14.668 7.59058 13.3619 7.04957 12 7.04957ZM18.538 6.84657C18.538 7.00416 18.507 7.1602 18.4467 7.30579C18.3863 7.45138 18.298 7.58367 18.1865 7.6951C18.0751 7.80653 17.9428 7.89492 17.7972 7.95523C17.6516 8.01553 17.4956 8.04657 17.338 8.04657C17.1804 8.04657 17.0244 8.01553 16.8788 7.95523C16.7332 7.89492 16.6009 7.80653 16.4895 7.6951C16.378 7.58367 16.2897 7.45138 16.2293 7.30579C16.169 7.1602 16.138 7.00416 16.138 6.84657C16.138 6.52831 16.2644 6.22309 16.4895 5.99804C16.7145 5.773 17.0197 5.64657 17.338 5.64657C17.6563 5.64657 17.9615 5.773 18.1865 5.99804C18.4116 6.22309 18.538 6.52831 18.538 6.84657Z"/>
</svg>
