<svg width="24" height="25" viewBox="0 0 24 25" xmlns="http://www.w3.org/2000/svg">
<path d="M15.744 13.7146C15.4519 13.3983 15.1236 13.1173 14.766 12.8776C16.2079 11.7632 17.2184 10.183 17.625 8.40657C17.6556 8.27803 17.6603 8.1447 17.6391 8.0143C17.6178 7.8839 17.5709 7.75901 17.5011 7.64684C17.4313 7.53467 17.3399 7.43744 17.2323 7.36079C17.1247 7.28413 17.003 7.22956 16.8741 7.20022C16.7453 7.17089 16.6119 7.16738 16.4817 7.18989C16.3516 7.2124 16.2271 7.26049 16.1156 7.33137C16.0041 7.40226 15.9078 7.49454 15.8321 7.60288C15.7565 7.71122 15.7031 7.83347 15.675 7.96257C15.4857 8.79362 15.1175 9.57338 14.5959 10.2475C14.0743 10.9216 13.4119 11.4738 12.655 11.8656V8.18657C12.6483 8.11317 12.6336 8.04073 12.611 7.97057C12.6043 7.91266 12.5926 7.85544 12.576 7.79957C12.5332 7.7083 12.4769 7.62401 12.409 7.54957C12.391 7.52957 12.382 7.50157 12.363 7.48157C12.2898 7.41396 12.2069 7.35767 12.117 7.31457C12.091 7.30057 12.072 7.27757 12.045 7.26657C11.9686 7.24078 11.8894 7.22433 11.809 7.21757C11.7592 7.20332 11.7084 7.19295 11.657 7.18657L11.003 7.18457H11C10.7657 7.18291 10.5384 7.26398 10.358 7.4135C10.1776 7.56301 10.0558 7.77139 10.0139 8.00191C9.97212 8.23244 10.013 8.47033 10.1293 8.67368C10.2457 8.87704 10.4301 9.03281 10.65 9.11357V14.0036C9.06494 12.359 8.01549 10.2726 7.64 8.01957C7.59571 7.75807 7.44935 7.52487 7.23312 7.37128C7.01689 7.21768 6.7485 7.15628 6.487 7.20057C6.2255 7.24486 5.9923 7.39122 5.83871 7.60745C5.68511 7.82368 5.62371 8.09207 5.668 8.35357C6.25192 11.8365 8.19404 14.9453 11.068 16.9976C11.1091 17.0219 11.1519 17.0433 11.196 17.0616C11.2309 17.0817 11.2669 17.0998 11.304 17.1156C11.4155 17.16 11.534 17.1841 11.654 17.1866C11.8011 17.1842 11.9459 17.1493 12.078 17.0846C12.088 17.0796 12.099 17.0826 12.109 17.0776C12.1973 17.0312 12.2782 16.9719 12.349 16.9016C12.364 16.8876 12.373 16.8716 12.387 16.8566C12.4514 16.7856 12.5053 16.7058 12.547 16.6196C12.5607 16.5912 12.573 16.5621 12.584 16.5326C12.6277 16.4223 12.6514 16.3051 12.654 16.1866V14.0606C13.2741 14.2423 13.8328 14.5897 14.27 15.0656L15.917 16.8626C16.0963 17.058 16.3459 17.1743 16.6109 17.1857C16.8759 17.1972 17.1345 17.1029 17.33 16.9236C17.5255 16.7443 17.6417 16.4947 17.6531 16.2297C17.6646 15.9647 17.5703 15.706 17.391 15.5106L15.744 13.7146ZM15.073 1.18457H8.938C2.78 1.18457 1 2.96257 1 9.11157V15.2476C1 21.4046 2.778 23.1846 8.927 23.1846H15.063C21.22 23.1846 23 21.4066 23 15.2576V9.12257C23 2.96457 21.222 1.18457 15.073 1.18457ZM21 15.2576C21 20.2976 20.112 21.1846 15.063 21.1846H8.927C3.887 21.1846 3 20.2966 3 15.2476V9.11157C3 4.07157 3.888 3.18457 8.938 3.18457H15.073C20.113 3.18457 21 4.07257 21 9.12257V15.2576Z"/>
</svg>
